<svg width="21" height="21" viewBox="0 0 21 21" fill="none" xmlns="http://www.w3.org/2000/svg">
<g id="&#240;&#159;&#166;&#134; icon &#34;google&#34;">
<path id="Vector" d="M20.7958 8.44357H19.95V8.4H10.5V12.6H16.4341C15.5683 15.0449 13.2421 16.8 10.5 16.8C7.02082 16.8 4.2 13.9792 4.2 10.5C4.2 7.02082 7.02082 4.2 10.5 4.2C12.106 4.2 13.567 4.80585 14.6795 5.79547L17.6494 2.82555C15.7741 1.07782 13.2657 0 10.5 0C4.70137 0 0 4.70137 0 10.5C0 16.2986 4.70137 21 10.5 21C16.2986 21 21 16.2986 21 10.5C21 9.79597 20.9275 9.10875 20.7958 8.44357Z" fill="#FFC107"/>
<path id="Vector_2" d="M1.21045 5.61278L4.66022 8.14275C5.59367 5.8317 7.85432 4.2 10.4998 4.2C12.1058 4.2 13.5669 4.80585 14.6793 5.79548L17.6493 2.82555C15.774 1.07783 13.2655 0 10.4998 0C6.46675 0 2.9692 2.27693 1.21045 5.61278Z" fill="#FF3D00"/>
<path id="Vector_3" d="M10.5 20.9999C13.2121 20.9999 15.6765 19.962 17.5397 18.2741L14.2899 15.5242C13.2357 16.3227 11.9253 16.7999 10.5 16.7999C7.76892 16.7999 5.44999 15.0585 4.57639 12.6283L1.15234 15.2664C2.89009 18.6668 6.41914 20.9999 10.5 20.9999Z" fill="#4CAF50"/>
<path id="Vector_4" d="M20.7958 8.4436H19.95V8.40002H10.5V12.6H16.4341C16.0183 13.7744 15.2628 14.7872 14.2884 15.5248C14.2889 15.5243 14.2894 15.5243 14.29 15.5237L17.5397 18.2737C17.3098 18.4826 21 15.75 21 10.5C21 9.796 20.9275 9.10877 20.7958 8.4436Z" fill="#1976D2"/>
</g>
</svg>
