<svg width="30" height="30" viewBox="0 0 30 30" fill="none" xmlns="http://www.w3.org/2000/svg">
<path id="Vector" d="M28.1429 0.714233H1.85721C1.22507 0.714233 0.714355 1.22495 0.714355 1.85709V28.1428C0.714355 28.7749 1.22507 29.2857 1.85721 29.2857H28.1429C28.7751 29.2857 29.2858 28.7749 29.2858 28.1428V1.85709C29.2858 1.22495 28.7751 0.714233 28.1429 0.714233ZM9.18936 25.0607H4.95007V11.4249H9.18936V25.0607ZM7.0715 9.56066C6.58552 9.56066 6.11046 9.41655 5.70638 9.14656C5.30231 8.87656 4.98737 8.49281 4.80139 8.04383C4.61542 7.59484 4.56676 7.10079 4.66157 6.62415C4.75638 6.14752 4.9904 5.70969 5.33404 5.36606C5.67767 5.02242 6.11549 4.7884 6.59213 4.69359C7.06877 4.59878 7.56282 4.64744 8.01181 4.83342C8.46079 5.01939 8.84454 5.33433 9.11454 5.7384C9.38453 6.14248 9.52864 6.61754 9.52864 7.10352C9.52507 8.46066 8.42507 9.56066 7.0715 9.56066ZM25.0608 25.0607H20.8251V18.4285C20.8251 16.8464 20.7965 14.8142 18.6215 14.8142C16.4179 14.8142 16.0786 16.5357 16.0786 18.3142V25.0607H11.8465V11.4249H15.9108V13.2892H15.9679C16.5322 12.2178 17.9144 11.0857 19.9786 11.0857C24.2715 11.0857 25.0608 13.9107 25.0608 17.5821V25.0607Z" fill="#3D7196"/>
</svg>
